PathFileType	4	(X/Y/Z)	..\data\2014030\dynamic\2014030_C4_03.trc
DataRate	CameraRate	NumFrames	NumMarkers	Units	OrigDataRate	OrigDataStartFrame	OrigNumFrames
100.000000	100.000000	4	52	mm	100.000000	43	174
Frame#	Time	L_IAS			L_IPS			R_IPS			R_IAS			L_FTC			L_FLE			L_FME			L_FAX			L_TTC			L_FAL			L_TAM			L_FCC			L_FM1			L_FM2			L_FM5			R_FTC			R_FLE			R_FME			R_FAX			R_TTC			R_FAL			R_TAM			R_FCC			R_FM1			R_FM2			R_FM5			CV7			TV10			SXS			SJN			L_SIA			L_SRS			L_SAA			L_SAE			L_HLE			L_HME			L_UOA			L_RSP			L_UHE			L_HM2			L_HM5			R_SIA			R_SRS			R_SAA			R_SAE			R_HLE			R_HME			R_UOA			R_RSP			R_UHE			R_HM2			R_HM5			
		X1	Y1	Z1	X2	Y2	Z2	X3	Y3	Z3	X4	Y4	Z4	X5	Y5	Z5	X6	Y6	Z6	X7	Y7	Z7	X8	Y8	Z8	X9	Y9	Z9	X10	Y10	Z10	X11	Y11	Z11	X12	Y12	Z12	X13	Y13	Z13	X14	Y14	Z14	X15	Y15	Z15	X16	Y16	Z16	X17	Y17	Z17	X18	Y18	Z18	X19	Y19	Z19	X20	Y20	Z20	X21	Y21	Z21	X22	Y22	Z22	X23	Y23	Z23	X24	Y24	Z24	X25	Y25	Z25	X26	Y26	Z26	X27	Y27	Z27	X28	Y28	Z28	X29	Y29	Z29	X30	Y30	Z30	X31	Y31	Z31	X32	Y32	Z32	X33	Y33	Z33	X34	Y34	Z34	X35	Y35	Z35	X36	Y36	Z36	X37	Y37	Z37	X38	Y38	Z38	X39	Y39	Z39	X40	Y40	Z40	X41	Y41	Z41	X42	Y42	Z42	X43	Y43	Z43	X44	Y44	Z44	X45	Y45	Z45	X46	Y46	Z46	X47	Y47	Z47	X48	Y48	Z48	X49	Y49	Z49	X50	Y50	Z50	X51	Y51	Z51	X52	Y52	Z52	

44	0.43	398.5424804687501	933.749938964844	-358.0455322265626	199.7301635742188	980.3838500976565	-281.0600280761719	206.4574127197266	984.664001464844	-165.5751495361328	408.6957397460939	935.9508056640627	-103.9627304077149	333.9385681152344	865.987487792969	-408.5432739257814	470.0421142578126	493.3398742675782	-361.9489135742188	476.4031677246095	499.628143310547	-241.2125396728516	456.7332458496095	435.7940063476564	-365.4388427734376	513.2156372070314	429.7342224121095	-308.3191528320313	352.8376770019532	114.7370300292969	-355.1752929687501	366.5689392089844	123.265739440918	-265.4496765136719	295.4788208007813	79.76930236816408	-315.0144653320313	472.468475341797	39.57123947143555	-264.8219299316407	482.2257385253907	48.05374908447267	-320.0362548828126	448.4183959960939	32.73063278198243	-366.1215515136719	321.9083251953126	858.974792480469	-50.64213943481447	312.0621948242188	462.212615966797	-126.4790725708008	302.0816650390626	470.5879516601564	-250.7586364746094	295.1649780273438	402.5754394531251	-129.887680053711	345.9559020996094	397.421844482422	-190.9030914306641	223.071273803711	73.61956787109376	-167.2771911621094	236.1609954833985	81.61895751953126	-257.5691528320313	169.3047943115235	23.08256340026856	-209.7738647460938	356.1468505859376	14.12176704406739	-236.3588256835938	364.9593505859376	34.15391159057618	-177.3806762695313	313.3949584960938	17.39035797119141	-126.1699829101563	287.9209289550782	1438.560668945313	-216.3740692138672	211.4502410888672	1208.863159179688	-238.2518768310547	451.4814758300782	1128.337890625	-248.1111602783204	411.8655395507814	1348.182373046875	-240.7472076416016	199.8306121826172	1241.637084960938	-327.7419738769532	235.5014801025391	1373.4638671875	-334.5713195800782	282.3429565429688	1377.330444335938	-404.2872924804689	335.8760375976563	1384.968017578125	-425.4183044433595	259.0676574707032	1077.892578125	-491.0420532226564	213.4032592773438	1086.076538085938	-433.0918884277345	219.9739532470704	1058.509887695313	-470.557586669922	314.0347290039063	839.5979003906252	-429.9816284179689	278.3198547363282	845.6480102539065	-493.8760681152345	325.5649108886719	751.5486450195314	-425.9648742675782	261.3688659667969	777.447204589844	-503.195526123047	210.6317138671876	1230.625	-144.7748718261719	253.3101196289063	1352.048828125	-118.4119338989258	299.0385437011719	1351.583251953125	-66.13832092285158	351.9680480957032	1355.8212890625	-48.57052612304689	348.8574829101563	1036.179809570313	28.65586471557618	308.2555847167969	1016.396423339844	-41.6285629272461	318.5653686523438	997.197692871094	2.676497459411622	484.0304260253907	837.8348388671877	-34.01987838745118	439.3462524414064	817.9302368164065	29.10074424743653	543.3597412109376	771.9527587890627	-31.06401634216309	473.520965576172	753.1247558593751	35.46591186523438	
45	0.44	407.9808349609376	933.1836547851565	-358.7620849609376	208.8839569091797	979.7691650390627	-280.9814758300782	216.1582946777344	983.6721191406252	-165.523666381836	418.3843994140626	934.8535156250002	-104.3813171386719	343.0668029785157	865.6069946289065	-409.2103271484376	480.2041931152345	492.4780578613282	-362.1023559570313	486.9256896972657	498.588348388672	-241.5809936523438	469.4360351562501	434.0025024414064	-365.2909240722657	525.8597412109376	430.6916503906251	-308.0786437988282	384.5968017578126	107.5284729003907	-354.0719909667969	397.591522216797	117.2424011230469	-264.3619689941407	329.3168945312501	69.74282836914064	-313.9301757812501	508.3980102539064	40.13592910766602	-263.2576904296876	517.4504394531251	48.82257461547853	-318.4950561523438	484.647186279297	31.18636131286622	-364.4714660644532	331.1721496582032	858.0146484375002	-50.89395904541017	317.1373901367188	461.6039123535157	-127.0320663452149	307.0959472656251	470.0772399902345	-251.2877044677735	299.5074768066407	402.0287170410157	-130.3869018554688	350.0765380859376	396.3064270019532	-191.6316680908203	223.4703521728516	73.94172668457033	-167.6181182861328	236.6361999511719	81.61370849609376	-258.0126647949219	169.3251495361328	23.69383621215821	-210.0178985595704	356.1954040527344	13.91075897216797	-236.5050506591797	364.9967651367188	34.09072494506837	-177.551010131836	313.3318176269532	17.45783424377442	-126.474349975586	297.4762268066407	1437.775512695313	-216.0361480712891	220.9245300292969	1208.122192382813	-237.6959381103516	460.6839599609376	1127.623046875	-248.4723358154297	421.3067016601564	1347.437744140625	-241.0262756347657	208.8933105468751	1240.80615234375	-326.9169311523438	244.5347595214844	1372.63623046875	-333.9787902832032	291.0386352539063	1376.51171875	-403.9044189453126	344.4571533203126	1384.173828125	-425.3321228027345	266.3157043457032	1077.324340820313	-490.2967529296876	221.2006225585938	1085.61962890625	-431.9156188964845	227.3271789550782	1058.1083984375	-469.4617004394532	320.9285888671876	838.8016357421877	-430.1487121582032	284.5558776855469	845.0596923828127	-493.6339416503907	332.0223693847657	750.6649169921876	-426.3301086425782	267.1850891113282	776.9199218750002	-502.8716125488282	220.5299987792969	1229.893798828125	-144.0874481201172	263.3115539550782	1351.344848632813	-117.866455078125	309.3145751953126	1350.85595703125	-65.82417297363283	362.3806152343751	1355.115112304688	-48.55470275878908	361.8095397949219	1035.400512695313	28.94832229614259	320.3211364746094	1015.386779785156	-41.0177230834961	331.2312622070313	996.2624511718752	3.168660640716554	497.9752197265626	838.6398925781252	-35.30512619018555	454.1260986328126	818.1937255859377	28.27801513671876	558.0305786132814	773.3242187500002	-32.98036193847657	488.9805297851564	753.6610717773439	34.17096328735352	
46	0.45	417.4796447753907	932.5351562500002	-359.5623474121094	218.1521148681641	978.9590454101565	-280.9367370605469	225.8840332031251	982.577575683594	-165.539291381836	428.1178283691407	933.830261230469	-104.8304824829102	352.1116027832032	865.070007324219	-409.8676147460939	489.6071166992189	491.271453857422	-362.3040466308594	496.7122802734376	497.1019897460939	-241.9569549560547	481.4872436523439	431.9922180175782	-365.1705017089844	537.7608642578126	431.4135742187501	-307.8580627441407	416.4223937988282	101.0889968872071	-353.0144042968751	428.6267700195314	112.0460662841797	-263.3359680175782	363.3866271972657	60.60338973999025	-312.8839111328126	543.8752441406251	41.72420501708985	-261.6428833007813	552.3248901367189	50.54073333740236	-316.9066772460938	520.6918945312501	30.60088920593262	-362.7909545898438	340.4873962402344	857.0452270507815	-51.1411819458008	322.3004150390626	461.0161743164064	-127.5509262084961	312.2232360839844	469.602020263672	-251.7572937011719	303.9248046875001	401.516815185547	-130.8423309326172	354.2842407226563	395.230194091797	-192.3096008300782	223.9188842773438	74.32962036132814	-167.898178100586	237.1652526855469	81.71734619140626	-258.4046325683594	169.3698425292969	24.434476852417	-210.2181243896485	356.2318420410157	13.70024013519287	-236.667465209961	364.9973754882813	34.00590896606446	-177.7361450195313	313.2665100097657	17.49999809265137	-126.7805252075196	307.0345764160157	1436.914306640625	-215.7846069335938	230.4040069580079	1207.308959960938	-237.2310333251954	469.8445434570314	1126.848510742188	-248.8670196533204	430.7589416503907	1346.615356445313	-241.3684692382813	217.9853668212891	1239.909912109375	-326.2032775878907	253.6055755615235	1371.74169921875	-333.4864807128907	299.7905273437501	1375.622192382813	-403.6114807128907	353.0920410156251	1383.310180664063	-425.3211975097657	273.7427978515626	1076.649536132813	-489.6193237304689	229.1561889648438	1085.044677734375	-430.8150024414064	234.8589019775391	1057.587158203125	-468.4368591308595	328.0845642089844	837.9338989257815	-430.3554687500001	291.0645751953126	844.3811645507815	-493.4309997558595	338.8091430664063	749.7167968750001	-426.7428283691407	273.3273010253907	776.3027954101565	-502.5895385742189	230.4239196777344	1229.100341796875	-143.4942169189453	273.3152465820313	1350.569091796875	-117.4109420776367	319.5929260253907	1350.05078125	-65.59577941894533	372.8081970214844	1354.32080078125	-48.61695861816408	374.6745300292969	1034.543212890625	29.12308883666993	332.3712463378907	1014.303894042969	-40.55719375610352	343.7880859375001	995.286071777344	3.520122051239015	511.6673583984376	839.2490234375002	-36.62212753295899	468.6902160644532	818.3193969726565	27.41448974609376	572.3797607421876	774.4634399414065	-34.90116882324219	504.132537841797	754.0610351562501	32.86498641967774	
47	0.46	427.0611267089845	931.8211669921877	-360.4137268066407	227.5526428222657	977.9599609375002	-280.9460144042969	235.6356353759766	981.3983154296877	-165.6371154785157	437.899139404297	932.8992309570315	-105.2977523803711	361.1175537109376	864.374206542969	-410.4971008300782	498.3247070312501	489.7654418945314	-362.5223388671876	505.8081359863282	495.2140197753907	-242.2975311279297	492.9175109863282	429.8266906738282	-365.0541687011719	548.9769287109376	431.9378662109376	-307.6329345703126	448.0431518554689	95.54419708251955	-352.0356445312501	459.4212951660157	107.7631454467774	-262.4029846191407	397.383270263672	52.48499679565431	-311.9061279296876	578.6182861328126	44.32951736450196	-260.0474548339844	586.5731811523439	53.20223236083986	-315.3452758789063	556.2467041015626	31.00766372680665	-361.1504821777344	349.8721313476563	856.080993652344	-51.37491607666017	327.5533142089844	460.4580688476564	-128.0257873535157	317.4459838867188	469.1778564453126	-252.1602783203126	308.4184875488282	401.051239013672	-131.2457275390625	358.5727844238282	394.2033691406251	-192.9291229248047	224.4256286621094	74.79507446289064	-168.1027374267578	237.7451782226563	81.94683837890626	-258.7316894531251	169.4473266601563	25.31959533691407	-210.3605957031251	356.2509765625001	13.50007057189942	-236.8390502929688	364.9682006835938	33.90499877929688	-177.9284973144532	313.2053222656251	17.52509117126465	-127.0746536254883	316.5915832519532	1435.989990234375	-215.6273803710938	239.893051147461	1206.431274414063	-236.8613281250001	478.9751281738282	1126.028442382813	-249.2949981689454	440.220672607422	1345.732788085938	-241.7734375000001	227.1108551025391	1238.953979492188	-325.6058654785157	262.7112426757813	1370.787841796875	-333.1002197265626	308.5947875976563	1374.6708984375	-403.4143371582032	361.7780151367188	1382.386474609375	-425.391571044922	281.3560791015626	1075.874755859375	-489.0213317871095	237.2712554931641	1084.358642578125	-429.8079833984376	242.5753173828126	1056.952026367188	-467.4997863769532	335.5036010742188	837.0001220703127	-430.5950012207032	297.8584899902344	843.6158447265627	-493.2686462402345	345.9255371093751	748.7100830078126	-427.1904296875001	279.8068847656251	775.596618652344	-502.3486633300782	240.314437866211	1228.251708984375	-142.9998779296875	283.3159790039063	1349.732055664063	-117.0526809692383	329.8661193847657	1349.18212890625	-65.4580764770508	383.2477722167969	1353.45166015625	-48.76063919067384	387.4440002441407	1033.617065429688	29.17274284362794	344.3934326171876	1013.166442871094	-40.25648880004884	356.2283630371094	994.2788085937502	3.721103906631471	525.1052246093751	839.6643066406252	-37.95785522460938	483.0121459960939	818.307067871094	26.50946044921876	586.4027709960939	775.3747558593752	-36.80508422851563	518.9506225585939	754.3220825195314	31.55324363708497	
